HIERARCHY
ROOT Spine
{
    OFFSET 0.0 0.0 -0.0
    CHANNELS 6 Xposition Yposition Zposition Zrotation Xrotation Yrotation
    JOINT ShoulderCenter
    {
        OFFSET 0.0 32.71935272216797 0.0
        CHANNELS 3 Zrotation Xrotation Yrotation
        JOINT LeftShoulder
        {
            OFFSET 18.05652618408203 0.0 0.0
            CHANNELS 3 Zrotation Xrotation Yrotation
            JOINT LeftElbow
            {
                OFFSET 32.530338287353516 0.0 0.0
                CHANNELS 3 Zrotation Xrotation Yrotation
                JOINT LeftHand
                {
                    OFFSET 32.951438903808594 0.0 0.0
                    CHANNELS 3 Zrotation Xrotation Yrotation
                    End Site
                    {
                        OFFSET 13.180575370788574 0.0 0.0
                    }
                }
            }
        }
        JOINT RightShoulder
        {
            OFFSET -18.05652618408203 0.0 0.0
            CHANNELS 3 Zrotation Xrotation Yrotation
            JOINT RightElbow
            {
                OFFSET -32.530338287353516 0.0 0.0
                CHANNELS 3 Zrotation Xrotation Yrotation
                JOINT RightHand
                {
                    OFFSET -32.951438903808594 0.0 0.0
                    CHANNELS 3 Zrotation Xrotation Yrotation
                    End Site
                    {
                        OFFSET -13.180575370788574 0.0 0.0
                    }
                }
            }
        }
        End Site
        {
            OFFSET 0.0 13.08774185180664 0.0
        }
    }
    JOINT LeftHip
    {
        OFFSET 16.89911945697893 -16.89911945697893 0.0
        CHANNELS 3 Zrotation Xrotation Yrotation
        JOINT LeftKnee
        {
            OFFSET 0.0 -39.267852783203125 0.0
            CHANNELS 3 Zrotation Xrotation Yrotation
            JOINT LeftFoot
            {
                OFFSET 0.0 -45.6805419921875 0.0
                CHANNELS 3 Zrotation Xrotation Yrotation
                End Site
                {
                    OFFSET 0.0 0.0 18.272216796875
                }
            }
        }
    }
    JOINT RightHip
    {
        OFFSET -16.89911945697893 -16.89911945697893 0.0
        CHANNELS 3 Zrotation Xrotation Yrotation
        JOINT RightKnee
        {
            OFFSET 0.0 -39.267852783203125 0.0
            CHANNELS 3 Zrotation Xrotation Yrotation
            JOINT RightFoot
            {
                OFFSET 0.0 -45.6805419921875 0.0
                CHANNELS 3 Zrotation Xrotation Yrotation
                End Site
                {
                    OFFSET 0.0 0.0 18.272216796875
                }
            }
        }
    }
}
MOTION
Frames: 5
Frame Time: 0.03333333333333333
-20.80000114440918 6.700000286102295 -121.5999984741211 -1.4014541798976858 2.8003770029027257 -100.4648304257498 -7.326102708156345e-08 -3.6944913430880116e-07 2.130546343824906 110.13986937945658 13.85673070861534 169.9511915342625 -1.633243946734679e-06 -6.767787623651746e-07 38.96597134436756 6.3611093629270335e-15 0.0 0.0 -169.84088582489304 54.211050614300426 146.32196842913348 -6.79448771897462e-07 2.0762030928597024e-06 -112.23882726738181 -4.770832022195275e-15 3.1805546814635168e-15 1.3241718894150476e-31 8.232233788600269 -5.909640364217951 -4.419161744442778 2.462768551518132 20.941228660881016 -44.5159851391561 -1.9310840053969444e-32 -1.5902773407317584e-15 -1.3914926731402886e-15 6.35946484226505 -5.959875728068556 4.5486435672580345 -7.911827559927673 17.20342529742419 41.024017176904685 0.0 0.0 -2.782985346280578e-15
-20.80000114440918 6.800000190734863 -121.5 -1.2300899896181294 2.6338314951534683 -100.68536357208896 -2.7206702198847722e-08 7.376720644794937e-09 2.025991738042535 110.77623897680617 12.573651791017891 169.21953207495858 5.962208398354604e-07 -3.848261616281339e-06 40.37719393913793 0.0 0.0 0.0 -169.7016095040449 53.35941460470942 146.26676023374714 -1.3171617127528097e-06 6.719870964571468e-07 -111.5804417944405 -7.951386703658791e-16 0.0 0.0 8.139615304607407 -6.0957350955346294 -4.0538832632662265 2.3439648668313726 20.89903953031189 -44.47642544379089 0.0 0.0 9.93923337957349e-16 6.133787294920571 -6.305162301093748 3.9014833491702348 -7.924439024739084 17.26151852727819 41.081508405066344 0.0 0.0 -1.9878466759146977e-16
-20.80000114440918 6.800000190734863 -121.5 -1.0544052321949435 2.6339919043920244 -100.73568927622314 -2.5598111227555893e-07 -1.2912303764804719e-07 2.554222904614694 110.37821811345893 11.749671531336459 170.15125261264518 4.0683560432005267e-07 -2.5311851238914983e-06 40.05952862293819 3.1805546814635164e-15 -1.7655625192200634e-31 -6.361109362927033e-15 -170.10585802754395 52.15562579535931 147.84189456879656 2.472914817572949e-06 -3.4831301097270567e-06 -111.5553498324611 2.3854160110976376e-15 3.1805546814635168e-15 -6.620859447075238e-32 8.179566674213085 -6.260404429631841 -3.987196455495923 2.4945221035258305 20.95426062149293 -44.783899442400795 -7.951386703658792e-16 -1.5902773407317584e-15 -1.987846675914698e-15 5.8829967119556335 -6.52833595864404 3.7878055377107147 -7.526150298390051 17.258115449784576 41.2603612342013 0.0 0.0 -1.2424041724466863e-15
-20.700000762939453 6.800000190734863 -121.4000015258789 -0.7029832919209194 2.283425085437983 -100.73953817797248 1.0898656997574452e-07 1.5736266040117914e-07 2.7338859544064267 110.01535919723773 12.036425623041458 170.94172336171124 2.0651125342651208e-06 -3.502686758338512e-06 40.07845894417044 3.531125038440127e-31 -6.361109362927033e-15 6.361109362927033e-15 -170.20816147617435 50.69851976282341 148.44095441175895 7.573264628989208e-07 -2.485256679156933e-06 -111.41875069017563 2.3854160110976376e-15 0.0 0.0 7.763181028592424 -6.696580299810483 -3.944422557680376 2.5217561609181223 20.816010670767735 -44.25173209145171 7.951386703658792e-16 -6.896728590703373e-34 -9.93923337957349e-17 5.671411889695048 -7.244539840962501 3.114691772017691 -7.965626610461434 17.592797903402193 42.600840441144705 0.0 0.0 -5.168401357378216e-15
-20.600000381469727 6.599999904632568 -121.30000305175781 -0.3504300312712914 1.9266159558694431 -101.006944493487 5.355416022956006e-08 2.270461952803422e-07 2.8188179597245098 109.44125234793013 11.354495587555567 170.2311792416554 2.345251768241316e-06 -2.6666372673284114e-06 41.37593810806222 3.180554681463516e-15 0.0 0.0 -170.06170249467942 48.7582093022883 149.07301645057663 -1.1049626475194105e-07 -3.6176486308668746e-06 -111.52317359766309 -1.5902773407317584e-15 -3.1805546814635168e-15 -4.4139062980501586e-32 7.658869943296815 -7.043247163209837 -4.552874946355841 2.1258234624713754 20.45937517674003 -43.45571012376839 0.0 0.0 8.647133040228937e-15 5.53851249608656 -8.201812494216615 2.34310056003053 -8.488210736472766 18.2936144563916 44.05550896198974 -7.951386703658792e-16 1.1927080055488188e-15 -3.975693351829396e-16
